<?xml version="1.0" encoding="UTF-8"?>
<svg version="1.1" viewBox="0 0 1220 1220" width="305" height="305" xmlns="http://www.w3.org/2000/svg">
<path transform="translate(608,68)" d="m0 0h43l4 4 2 15 3 3v10l1 4h2l1 2v15l4 4v7l1 3 3 3 1 5-1 5 4 6 1 6h5 4l10-1 7 5 9-1 7 5 9-1 6 4h6l6 4h6l9 5 6-2 63-63 4 1 16 8 18 10 13 8 10 6 10 7 6 5 1 3-4 3v12l-4 4 1 9-3 5-2 3v7l-4 5v7l-4 5 1 8-4 6-1 10 3 5 6 7 6 5 6 7 6 5 5 6 7 6 5 6 7 6 6 7 6 5 3 3 5-5 10 2 5-5 8 1 2-4 7-1 5 2 4-5 3-1 6 1 6-5 10 1 4-4 12-1 5 5 5 9 5 6 7 11 9 16 6 9 6 13 1 7-4 6-42 42-7 3-11 11-1 6 4 7 1 8 3 4 1 9 3 3v7l4 5v13l1 4 3 2 1 6-1 1v7l4 2 1 10 5 1 5-1 5 3 3 2 9-1 7 5 9-1 8 5 5-1 6 2 3 2h7l11 4 7 1 1 2v83l-2 4-8 4-8-1-5 4-4 1-1-1h-6l-6 5-10-1h-2l-1 3-3 2-8-2-4 2-4 4-9-1h-2l-1 3-8 1v6l-4 6v13l-3 5h-2l2 9-2 5-3 2v6l1 3-2 4h-2l-1 11-4 5v8l-4 4 2 4 9 10 8 7 5 5v2l4 2 8 8v2l4 2v2l4 2v2l3 1 6 7 12 12-1 5-9 19-10 18-8 12-8 13-6 9-4 2-8-3-2-2h-7l-4-3v-2l-8 2-6-2v-2l-7-1-3 1-4-5-8 1v-2l-4-2v-2l-9 2-10-5-5 1-12 11-52 52-1 2v12l3 4 1 9 3 3 1 9 4 6-1 8 3 3 2 7-1 1v5l4 4v10l4 2v5l-8 6-6 4-8 5-11 6-5 4-22 11-11 6-4 5-4-2-8-7-8-8-7-8-6-9-12-12v-2h-2l-6-7-8-7-6-7-4 1-2 2-10 2-6 3-5 2-4 3-9-1-6 5-11-2-2 4-5 2-6-2-8 6-8-2-3 3-2 6-3 2v9l-4 3 1 9-5 8v15l-4 4v12l-3 1-1 7v7l-4 6-2 1h-41l-1-1v-87h-52l-5-1-2-3h-20l-6-2-3-2h-8l-5-2-3-2-5 1-8-3-3-2h-8l-13-6-1-1-9-2-3-2-9-2-12-6-9-3-19-9-9-6-19-11-9-6-16-11-12-8-5-5-7-4-7-7-8-7-27-27-7-8-7-10-10-10-14-20-15-23-12-23-14-28-7-18-4-9-4-11-2-9-3-5 1-6-5-10 1-6-2-6h-2l-1-8v-12l-4-8v-7l1-4-4-5-1-92 4-5v-26l3-5 2-5-1-7 4-5 1-5-1-7 2-6 2-2v-6l4-7v-9l8-16 3-9 5-11 3-9 9-19 8-14 5-8 7-12 7-10 8-12 9-10 8-11 9-10 6-7 4-6 9-10 7-7 13-9 13-13 14-10 12-8 7-6 11-7 16-9 9-5 5-4 19-9 7-2 16-8 11-3 2-2 10-2 2-2 9-1 5-4 10 1 3-4 8-1 5 1 3-4 8-1h8l4 1 4-4 7-1 12 1 3-1 2-3 43-1z" fill="#ECC01F"/>
<path transform="translate(564,152)" d="m0 0h41v3l3 1 1 38 1 19-3 9-5 11-1 6h5l2 2 1 140h2l-1 5v25h-2v18l2 1h-2l1 3v31l3 2-2 1-2 4-23 3-18 5-13 6-12 7-10 8-10 9-8 10-9 14-7 16-4 11-2 14v31l3 16 6 16 9 17 9 11 9 10 14 11 14 8 16 7 25 5 11 1v48l-1 3v266h-51l-5-1-2-3h-20l-6-2-3-2h-8l-5-2-3-2-5 1-8-3-3-2h-8l-13-6-1-1-9-2-3-2-9-2-12-6-9-3-19-9-9-6-19-11-9-6-16-11-12-8-5-5-7-4-7-7-8-7-27-27-7-8-7-10-10-10-14-20-15-23-12-23-14-28-7-18-4-9-4-11-2-9-3-5 1-6-5-10 1-6-2-6h-2l-1-8v-12l-4-8v-7l1-4-4-5-1-92 4-5v-26l3-5 2-5-1-7 4-5 1-5-1-7 2-6 2-2v-6l4-7v-9l8-16 3-9 5-11 3-9 9-19 8-14 5-8 7-12 7-10 8-12 9-10 8-11 9-10 6-7 4-6 9-10 7-7 13-9 13-13 14-10 12-8 7-6 11-7 16-9 9-5 5-4 19-9 7-2 16-8 11-3 2-2 10-2 2-2 9-1 5-4 10 1 3-4 8-1 5 1 3-4 8-1h8l4 1 4-4 7-1 12 1 3-1z" fill="#BEC1C3"/>
<path transform="translate(810,639)" d="m0 0 1 2 10 2 6 4 5 2 3 3h24l1 6h7l5 2 14 3 28 7 32 9 24 7 29 7 10 2 13 4h7l-1 9 1 3-2 4h-2l-1 11-4 5v8l-4 4 2 4 9 10 8 7 5 5v2l4 2 8 8v2l4 2v2l4 2v2l3 1 6 7 12 12-1 5-9 19-10 18-8 12-8 13-6 9-4 2-8-3-2-2h-7l-4-3v-2l-8 2-6-2v-2l-7-1-3 1-4-5-8 1v-2l-4-2v-2l-9 2-10-5-5 1-12 11-52 52-1 2v12l3 4 1 9 3 3 1 9 4 6-1 8 3 3 2 7-1 1v5l4 4v10l4 2v5l-8 6-6 4-8 5-11 6-5 4-22 11-11 6-4 5-4-2-8-7-8-8-7-8-6-9-12-12v-2h-2l-6-7-8-7-6-7-4 1-2 2-10 2-6 3-5 2-4 3-9-1-6 5-11-2-2 4-5 2-6-2-8 6-8-2-3 3-2 6-3 2v9l-4 3 1 9-5 8v15l-4 4v12l-3 1-1 7v7l-4 6-2 1h-41l-1-1-1-87-1-1v-267l2-4 21-5 23-7 20-8 15-8 14-11 24-24 9-11 12-14 8-10 5-5-2 5-7 10-4 10-6 14-8 24-5 23-2 11v8h1l3-12 6-14 10-17 11-18 12-19 10-13 8-8 13-9 6-2z" fill="#EB9A1D"/>
<path transform="translate(564,152)" d="m0 0h41v3l3 1 1 38 1 19-3 9-5 11-1 6h5l2 2 1 140h2l-1 5v25h-2v18l2 1h-2l1 3v31l3 2-2 1-2 4-23 3-18 5-13 6-12 7-10 8-10 9-8 10-9 14-7 16-3 9-3 1-32-9-42-11-33-9-38-10-33-9-31-8-14-4 1-5 5-6 2-8v-10l-1-1-12-2-3-1-3 11h3l4-4 7 3-1 7-3 4-4 1h-10l-6-4-1-2v-9l4-6v-4l-7-1-4 4-3 10 1 13-8-1-19-5-23-5-2-3 1-5 2-6 2-3v-9l8-16 3-9 5-11 3-9 9-19 8-14 5-8 7-12 7-10 8-12 9-10 8-11 9-10 6-7 4-6 9-10 7-7 13-9 13-13 14-10 12-8 7-6 11-7 16-9 9-5 5-4 19-9 7-2 16-8 11-3 2-2 10-2 2-2 9-1 5-4 10 1 3-4 8-1 5 1 3-4 8-1h8l4 1 4-4 7-1 12 1 3-1z" fill="#FCFCFB"/>
<path transform="translate(656,453)" d="m0 0h12v19l-20 1-12 6-11 9-8 5h-3v2l-4 1v4l13-2 13-8 6-5 4-5 7-4 9-1 6-1v16l-15 5-1 2-9 5-2 4-4 4v1l-9 3-6 3-7 1-6 2v6h9l12-6 12-13 6-2 1-3 11-5 7-2 1 1v14l-8 5-10 7-10 9-8 9-8 5h-11l-4-1-1-4v-13l-19 4-16 8-10 9-6 8-6 12-3 12v20l6 17 8 12 7 7 10 7 14 5 15 2v-13l11 5 10 2h12l13-3 12-7 14-11 6-6h2l2-4 10-10 10-13 10-14 16-27 15-27 11-16 11-12 9-8 15-10 15-7 16-2 16 2 10 4 1 1v45l-5-2-14-4-7-1h-11l-10 2-12 6-11 9-9 9-11 15-17 28-14 25-10 17-6 9h-2l-2 4-9 9-13 10-21 13-19 9-11 3-8 1h-24v12l4 3 16 5 5 1h8l16-5 14-7 11-7 10-8 10-9 11-12 11-14 13-17 14-19 16-23 10-14 14-19 9-10 1-2h2l2-4 10-8 5-2h14l11 4 8 4 1 2v56l-7-4-8-7-9-5-7-1-9 2-11 6-8 7-9 14-11 22-3 7 5-6h2l2-4 13-13 9-6 6 1 14 7 10 9 2 1v2l3 1v2l-16 8-15 8-15 10-10 8-10 11-10 15-24 40-8 16-3 10-2 6-2-1v-8l5-26 8-27 9-22 4-8 8-12-4 4-9 11-11 13-12 14-23 23-15 11-21 10-30 10-19 5h-6v-45h-11l-25-5-16-7-11-6-12-9-10-9-11-13-7-11-8-17-5-17-1-8v-31l2-14 8-21 7-13 9-12 11-12 14-11 13-8 18-7 12-3 17-2h6v3h10l10-3 13-11 11-6z" fill="#33444F"/>
<path transform="translate(376,672)" d="m0 0 4 2 8 17 8 16 8 14 10 14 7 9 6 7v2h2l7 8 15 14 17 13-2 5-16 24-12 16-15 22-11 16-13 18-9 13-7 8-11-6-10-8-13-11-15-14-19-19-9-11-13-16-18-27-9-15-12-22-7-16-6-16-1-6 5-3 16-6 39-14 32-12 17-6z" fill="#D7453B"/>
<path transform="translate(485,801)" d="m0 0 6 1 17 8 11 5 27 9 17 4 2 1v10l-4 22-6 32-7 42-5 29-3 11-9-1-13-2-25-7-24-8-20-8-16-8-19-10-2-5 7-11 14-24 28-49 13-22z" fill="#D7453B"/>
<path transform="translate(821,522)" d="m0 0h14l11 4 8 4 1 2v56l-7-4-8-7-9-5-7-1-9 2-11 6-8 7-9 14-11 22-3 7 5-6h2l2-4 13-13 9-6 6 1 14 7 10 9 2 1v2l3 1v2l-16 8-15 8-15 10-10 8-10 11-10 15-24 40-8 16-3 10-2 6-2-1v-8l5-26 8-27 9-22 4-8 8-12-4 4-9 11-11 13-12 14-23 23-15 11-21 10-30 10-19 5h-6v-45l-4-1 3-2 3-3h6l14 4 12 1 1 1h10l6-3 6-5h2v-2l7-4h3v-2l-7 1 5-4 11-7 14-12 7-7 18-22 13-17 14-19 16-23 10-14 14-19 9-10 1-2h2l2-4 10-8z" fill="#33444F"/>
<path transform="translate(656,453)" d="m0 0h12v19l-20 1-12 6-11 9-8 5h-3v2l-4 1v4l13-2 13-8 6-5 4-5 7-4 9-1 6-1v16l-15 5-1 2-9 5-2 4-4 4v1l-9 3-6 3-7 1-6 2v6h9l12-6 12-13 6-2 1-3 11-5 7-2 1 1v14l-8 5-10 7-10 9-8 9-8 5h-11l-4-1-1-4v-13l-19 4-16 8-10 9-3 1-4-1-8 6-2 4h-2l1 3h-3l-1 5-5 3-27-6h-6l-2-1v-2l-6-1-1 4-1-3 8-21 7-13 9-12 11-12 14-11 13-8 18-7 12-3 17-2h6v3h10l10-3 13-11 11-6z" fill="#33454F"/>
<path transform="translate(556,547)" d="m0 0 5 2-5 9-5 10-3 12v20l6 17 8 12 7 7 10 7 14 5 10 3 1 2-4 6h3l1 7-2 19 1 4h2l3 10h7l9 3-1 2-7-2h-8v4l-4 1-13-1-19-4-16-7-11-6-12-9-10-9-11-13-7-11-8-17-5-17-1-8v-31l1-9 3-6 4-1v2h2v2h8l15 3 12 3 4-2 2-5 2-1v-2h2l2-5z" fill="#2E4154"/>
<path transform="translate(851,426)" d="m0 0 4 1v31l-3 1-9-1h-14l-19 2-21 5-14 6-9 7-8 8-8 13-8 17-6 15-11 18-13 18-13 15-11 12-14 13-14 10-13 6-4 1h-17l-13-5-4-3-1-28 14 7 3 1h17l10-4 14-8 14-14 9-11 14-18 13-18 9-15 9-19 9-14 10-13 11-11 11-7 12-6 18-6 14-3z" fill="#34444F"/>
<path transform="translate(835,392)" d="m0 0h19l1 1-1 25h-22l-22 4-20 7-25 11-11 7-5 5-7 8-12 20-11 22-11 16-12 16-3 5h-2l-2 4-9 10-12 12-13 8-9 3-14 3h-24l1-23h20l16-4 14-9 12-11 12-16 9-15 9-17 13-29 6-10 9-11 14-10 19-11 20-9 21-7 22-4z" fill="#34454F"/>
<path transform="translate(602,527)" d="m0 0h6l2 19-2 8 3 1-2 1v21l-1 2 2 1-1 2 1 36h-3l1 14v18h-10l-12-3-12-6-13-12-9-14-5-15v-20l4-15 7-12 9-10 9-7 13-6z" fill="#FBFBFA"/>
<path transform="translate(851,652)" d="m0 0h8v17l-1 19-3 15-5 12-6 10-7 7-11 7-20 6-11 2h-24l-1-2 22-2 12-4 8-6 9-10 10-15 8-16 1-8-16-2h-4v13l-2 10-5 10-9 10-10 7h-7l-10-6-7-8-4-6-10 12-10 15-7 11-3 1 3-9 7-16 8-16 8-11 7-9h2l2-4 12-9 13-8 20-9 18-6z" fill="#34454F"/>
<path transform="translate(818,511)" d="m0 0h11l15 3 3 1v2l-5 1-1 2-4 2-16 1-8 4-8 7-1 2h-2l-2 4-11 13-13 18-10 14-11 16-13 18-13 17-11 14-9 10-7 8-12 11-10 7-19 11-15 5-4 1h-8l-15-4-9-4-2-2v-12l4-1h21l16-3 16-7 18-10 17-12 13-12 3-4h2l2-5 6-9 9-16 12-21 17-28 9-12 9-10 11-10 12-7 6-2z" fill="#ECC01F"/>
<path transform="translate(829,457)" d="m0 0h14l3 2h-18v2l6 2 4 2 5 2v1h-18l-13 2-17 8-14 10-10 9-9 10-11 17-16 29-14 23-10 14-13 16-14 14-11 10-15 10-11 4-6 1h-12l-13-3-8-5-1-5v-14h3l1-2 4 3 11 4h17l11-4 12-7 11-9 13-12 12-13 9-11 13-18 9-15 6-12 7-17 8-15 11-12 7-6 14-7 18-5 13-2z" fill="#EFCB37"/>
<path transform="translate(804,600)" d="m0 0 6 1 14 7 10 9 2 1v2l3 1v2l-16 8-15 8-15 10-10 8-10 11-10 15-24 40-8 16-3 10-2 6-2-1v-8l5-26 8-27 9-22 4-8 8-12 3-7 10-14 5-5 4-2 2-4 13-13z" fill="#34454F"/>
<path transform="translate(826,418)" d="m0 0h12l-1 2h8l3 3-1 3-6 2-22 2-21 5-18 7-10 6-9 7-9 9-13 18-8 16-10 19-12 17-16 21-11 13-7 8-9 9-16 9-8 3h-17l-10-4-7-5v-6l2-3 22-1 21-5 12-7 10-9 7-7 7-8 2-3h2l2-5 12-16 9-13 12-23 9-16 9-12 4-5 13-9 24-11 19-7z" fill="#EECA37"/>
<path transform="translate(635,367)" d="m0 0h7l10 3 8 6 6 8 2 7v10l-4 11-8 9-9 5-4 1h-8l-12-4-9-8-4-8-1-3v-18l1-3h2l2-5 8-7 7-3z" fill="#34454F"/>
<path transform="translate(730,621)" d="m0 0 2 1-1 2 3 1v4l-6 8-10 13-9 10-7 8-12 11-10 7-19 11-15 5-4 1h-8l-15-4-9-4-2-2v-12l4-1h21l16-3 16-7 18-10 17-12 13-12 3-4 5-3 3-3z" fill="#EA991E"/>
<path transform="translate(587,201)" d="m0 0 4 1 2 3 2 9 1 27h-7l-2-3-1-10-2-2-7 13-7-1-6-8-3-3v16l-6 2-12 2-7-4-5-6h-3l1 13-2 1h-7l-4-11-2-15-2-7v-5l6-2 14-2 8 3 3 5 1 7-3 5 3 7 5 5v2l2-1-1-26-1-10 3-2h6l5 5 8 13h3l5-11 3-7z" fill="#C1BEB3"/>
<path transform="translate(601,152)" d="m0 0h4v3l3 1 1 38 1 19-3 9-5 11-1 6h5l2 2 1 140h2l-1 5v25h-2v18l2 1h-2l-1 2-7-1-1-11 1-2h2l1-4h2v-25l-2-4v-3h-2l-3-12 1-10 4-16 1-24v-30l1-46-1-2-8-1-2-27-3-11-4-1-5 3-2 6h-1v-6l5-5 6-3 3-9 9-24 1-1v-8l-2-1z" fill="#EFEFEB"/>
<path transform="translate(272,393)" d="m0 0 7 1 20 10 4 4 4 2-2 5-11 3-19 2 1 3 20 10-1 5-2 2h-5l2 6-5 10-3 8-8-1-21-9-5-3 1-6 6-14h4l1 3-3 7v6l7 2v-1l-6-2 2-10 1-7-6-1 4-2v-3l-1-3 5-5 6-2 15-2 3-1-6-4-7-4-3-2z" fill="#F8F8F6"/>
<path transform="translate(677,605)" d="m0 0 1 2 8 2v4l2 1-3 4-6 7-13 10-12 7-13 3h-12l-13-3-8-5-1-5v-14h3l1-2 4 3 11 4h17l11-4 12-7 8-6z" fill="#EA9A1E"/>
<path transform="translate(608,431)" d="m0 0h17l14 1 28 1 1 1v14l-21 2-8 7-6 4-11 3h-14z" fill="#34444E"/>
<path transform="translate(666,495)" d="m0 0 2 1v14l-8 5-10 7-10 9-8 9-8 5h-11l-4-1-1-4v-14h10l12-6 12-13 6-2 1-3 11-5z" fill="#38464C"/>
<path transform="translate(488,222)" d="m0 0h10l7 3 5 6 2 8-1 9-5 6-7 4-4 1h-7l-8-4-5-7-2-10 3-8 7-6z" fill="#495052"/>
<path transform="translate(829,457)" d="m0 0h14l3 2h-18v2l6 2 4 2 5 2v1h-18l-13 2-17 8-14 10-10 9-4 3-5 2-1-6v-4l-2-1 1-3h2l2-4 2-3h2l-2-4 9-7 14-6 21-5z" fill="#EFC937"/>
<path transform="translate(718,446)" d="m0 0 1 2-8 16-10 22-12 22-7 11-8 10-9 10-10 8-10 6-16 4h-15l-6-3 1-10h15l9-6 12-13 10-8 7-4 2 1-3 3-2 5h-7l-4 5-4 8h-2l-3 9h7l7-4 4-2v-2l5-4h2v-2h2v-2l7-5 7-7 2-7 6-7 6-10 7-14 6-13 8-16z" fill="#EFCA37"/>
<path transform="translate(818,265)" d="m0 0 5 2 10 7 5 8 1 3v7l-6 9-5 4-7 2-7-1-16-10 1-4 16-22z" fill="#42413C"/>
<path transform="translate(623,193)" d="m0 0h4l-1 4-1 3 4 15 6 18 1 2v6h-8l-3-6-6-2h-8l-2 7h-3l-5-1v-6l5-11 3-10v-12l2 4 5-2-2-4 1-3z" fill="#D9972C"/>
<path transform="translate(789,548)" d="m0 0h2l-1 4-14 19-10 14-11 16-13 18-8 10-2-1 1-3-2-1-1-2-5 6-4 2-3 2 2-5 6-9 9-16 12-21 7-12h2l-2 10-2 4-1 9h2l4-4h2l2-6 7-6 2-5 2-1 2-5 6-5 2-4 2-5z" fill="#EFC938"/>
<path transform="translate(557,551)" d="m0 0 3 1-6 9-4 10-2 9v20l6 17 8 12 7 7 10 7 14 5 5 1 2 4-1 4h-5l-1-7-2 2-7 1-2-1 1-4h-3l-4-4 2 3-2 3-7-1-3-2v-2h-2v-2h-2l-1-5h-3l-2-4-2-1-2-6-4-4v-3h-2l-3-8-2-2-1-6-1-7-1-5v-15l2-4 6-2 5-12 3-7z" fill="#344550"/>
<path transform="translate(963,439)" d="m0 0h3l1 8-17 17-1 2 10 2 16 1 3 5-1 5-31 10-4-1-1-3 6-3 10-3 3-5-19-3-1-4 6-7h2l2-4 3-5-10 2-8 3h-4l-1-5 10-4z" fill="#42403C"/>
<path transform="translate(255,428)" d="m0 0 6 1v7l-2 10 5 1h3l-3 3-7-2-1-1v-6l3-9-3-1-7 16v4l25 11 8 2 3-9 2-2-1 6-5 9-4 2-1-1-12-2-3-1-3 11h3l4-4 7 3-1 7-3 4-4 1h-10l-6-4-1-2v-9l4-6v-4l-7-2 2-4 1-5-1-4z" fill="#F8F8F6"/>
<path transform="translate(587,203)" d="m0 0 4 1 3 18 1 18h-5l-1-1-2-17-2-5-8 18-2 2-4-1-7-9-4-7-1 23h-5l-1-2-2-33 6-2 5 5 10 16v2h3l3-12 5-12z" fill="#485052"/>
<path transform="translate(325,329)" d="m0 0h7l5 5 1 10 17 2-1 4-2 1h-17l-3 2 5 5 4 3-1 5-5 1-10-9-8-7-6-6 1-4 8-9z" fill="#495052"/>
<path transform="translate(524,212)" d="m0 0h10l5 3 2 3v7l-3 5 4 6 6 7-1 2-7-1-9-9-4 1v12l-5 2-3-8-4-20-1-2v-6z" fill="#485052"/>
<path transform="translate(232,501)" d="m0 0h8l23 4 5 1-1 6-10 6-14 7v2l19 4 1 1v5l-15-1-19-4-3-1 1-4 8-6 14-8 1-4-18-3-1-4z" fill="#484F52"/>
<path transform="translate(738,225)" d="m0 0 7 2 1 1v39l-5-1-2-5v-5l-9-3-4-4-4 5-2 3-6-1-2-4 5-3 9-11 10-12z" fill="#3F3E3A"/>
<path transform="translate(360,292)" d="m0 0h6l14 8 12 6 4 3-1 3-5 2-4-2-6 1-7 6 1 10-2 3-3-1-5-12-7-19v-6z" fill="#474D4F"/>
<path transform="translate(945,492)" d="m0 0 4 3 33 4 4 4-1 5-11 8-17 11h-4l-1-5 5-5-1-12-1-2-7-1-3-3z" fill="#42413D"/>
<path transform="translate(273,395)" d="m0 0 5 1 22 10 7 4-2 5-11 3-19 2 1 3 16 8 3 2-2 4-3 1-23-12-7-4 1-4 10-3 20-4v-2l-12-6-7-5z" fill="#474F52"/>
<path transform="translate(818,511)" d="m0 0h11l15 3 3 1v2l-5 1-1 2-4 2-16 1-8 4-8 7-1 2h-2l-1 3-1-3 5-7 7-4 1-2h-8l-5-1-5 4-1 2h-2v2l-8 6-1 2-2-1h-2l-1 3-5 4-8 11v-3l8-11 9-10 11-10 12-7 6-2z" fill="#EFC937"/>
<path transform="translate(429,246)" d="m0 0 4 2 13 22 2 4-1 5-7-1-14-6-9-2 5 10 5 8v3l-5 1-12-20-5-9v-3h7l24 8-3-7-6-11z" fill="#485052"/>
<path transform="translate(604,472)" d="m0 0 2 2 1 5h-2v-2l-8 1-11 4-4 1-3 2-9 2-7 3-5 2-13 6h-4l-3 3h-2l-1 3-5 5h-2l-1 3-5 4-1-5 9-9 5-6 15-10 12-6 15-5 8-2h8l10 1z" fill="#2E4154"/>
<path transform="translate(621,749)" d="m0 0 4 1-16 6v253l-1 15-2-1v-267l2-4z" fill="#DAA62A"/>
<path transform="translate(245,463)" d="m0 0h5v4l-5 8v7l4 5 5 2h10l5-5 2-4v-4l-6-2-5 4-2-1 1-6 2-5 10 2 5 2 1 9-3 10-8 7-6 2-11-2-7-5-3-6v-10l3-8z" fill="#485052"/>
<path transform="translate(336,300)" d="m0 0 4 1v6l-1 2 4 2 3 2v2l4 2 10 10 6 8 2 1-1 4-3 1v2h-5l-20-20-1-3-7-6-1-5 3-5z" fill="#B4B1A6"/>
<path transform="translate(488,227)" d="m0 0h9l7 8 1 8-3 7-4 3-9 1-5-4-4-9v-6l5-7z" fill="#FBFBFA"/>
<path transform="translate(949,409)" d="m0 0h2l8 17 1 5-5 1-6-12-6 1-1 3 2 11-4 1-5-9-5 1-3 1 1 6 4 9-4 2-4-5-7-15 5-4 25-11z" fill="#41403B"/>
<path transform="translate(610,407)" d="m0 0 2 3 6 8 5 4 12 4h8l8-3h7l2 8 8 1v1h-29l-31-2-1-12 1-8h2z" fill="#EFC937"/>
<path transform="translate(851,290)" d="m0 0 7 4 11 11-2 3-4-2-9-6-4 4-1 3 7 6-1 4-4-1-6-4-4 2-2 2-1 4 4 2 6 5-1 5-5-2-8-8-6-4 3-5 12-13 6-9z" fill="#41413E"/>
<path transform="translate(256,430)" d="m0 0 4 2-3 9v6l7 2 3-4 3-6 3 2-2 10 6 4 3 1 3-10 2-4 5 2-3 9-4 9-1 2-8-1-21-9-5-3 1-6 6-14z" fill="#484F52"/>
<path transform="translate(822,681)" d="m0 0 14 1 5 2-1 8-8 16-8 12-8 10-7 7h-2l2-4 3-3 2-3h2l2-5 7-10 2-9-2-1-3-5v-2h-2v-13z" fill="#D9A02B"/>
<path transform="translate(303,352)" d="m0 0 4 1-2 5-4 5-1 4 3 3 7 1 2-5 1-1h5l-2 5-2 3h-2l2 5 2 2h5l4-5 3-4h4v5l-12 15-5-2-12-9-11-9v-4l4-6z" fill="#495052"/>
<path transform="translate(821,274)" d="m0 0 6 1 5 7v8l-4 6-5 5h-8l-9-6 2-4 6-9z" fill="#DAA12A"/>
<path transform="translate(654,448)" d="m0 0h15v6h-13l-10 4-8 6-10 8-10 3h-10l-1-2 3-7-1-2 18-2 10-4 3-3h2l2-4 3-2z" fill="#EEC938"/>
<path transform="translate(977,529)" d="m0 0 8 1 5 4 1 3v12l-2 2h-4v-12l-2-3h-5l-4 14-3 4-9 1-6-5-3-8v-6h2l2-4h5l-1 4-1 2v7l2 3h5l4-13 4-5z" fill="#443F3A"/>
<path transform="translate(775,470)" d="m0 0 2 1-2 4 9-2 8-1 2 4-6 5-5 3-7 5-3 1v5l-6 5-5 2-1-6v-4l-2-1 1-3h2l2-4 2-3h2l-2-4z" fill="#ECC020"/>
<path transform="translate(909,358)" d="m0 0h6l6 5 4 8-1 4-3 1-4-9-2-3-5 1 1 10v10l-4 4-3 1h-7l-6-5-4-8 1-5 5-1 2 12 8 1 1-1-1-9-2-4v-5l4-5z" fill="#43413C"/>
<path transform="translate(698,215)" d="m0 0h8l10 5 2 3-3 3-7-4h-10l-5 4-1 3v11l4 5 3 1h11l1 5-1 1h-13l-7-4-4-4-1-3v-16l4-6z" fill="#433F3A"/>
<path transform="translate(878,322)" d="m0 0h7l8 6 3 6-1 4-3 1-4-8-5-3-4-1 1 9 3 6v7l-5 5-3 1h-8l-7-8-2-4 1-5h4l5 10 4 1 4-1v-6l-4-9 1-7z" fill="#423F3A"/>
<path transform="translate(620,202)" d="m0 0 4 3 9 27 2 4v4l-7-1-3-6-13-2v-4h11l-4-15-2-1-6 11h-2l-2 6h-2v-5l4-8h2l1-7 1-3 7-1z" fill="#413F3B"/>
<path transform="translate(495,622)" d="m0 0h2v2l2 1 3 6v4h2l2 8h2l3 5-1 2 3 1 1 4 5 3v2l5 2 3 7v2h2l5 6 4 1 5 6 6 3 3 2h3l1 4 5 1 5 3 13 4 14 3v2l-17-3-14-5-17-9-12-9-10-9-11-13-7-11-8-17z" fill="#364650"/>
<path transform="translate(637,204)" d="m0 0 16 1 13 1v5l-1 1h-10l-3 21-1 10h-5l-1-1v-19l1-11-5-1-4-1-1-5z" fill="#443F3B"/>
<path transform="translate(804,578)" d="m0 0 2 1-8 7v3l2 8 3 1 7 1 2 2h-8l-6 4-10 9-7 7-7 8-2 1 2-5 11-23 8-13 8-9z" fill="#ECC943"/>
<path transform="translate(929,379)" d="m0 0 4 1 10 16 4 8-1 1h-5l-3-6h-5l-10 6-12 7-3-1-2-5 8-5 15-9 3-1-2-5z" fill="#42413E"/>
<path transform="translate(608,240)" d="m0 0h2v134l8-2 6-4 6-2h16l8 4-2 1-10-3-13 1-10 5-6 7-2 2v-2h-2l-1-5z" fill="#E7BD32"/>
<path transform="translate(774,239)" d="m0 0 5 3v20l5-2 10-7h8l-2 4-18 12h-2l-2 5-3 6-3 1-4-2 1-4 3-4 1-5v-26z" fill="#403E3A"/>
<path transform="translate(459,233)" d="m0 0h4l-1 4-9 4-1 7 4 4 6-2 5-2 1 5-6 3h-4l3 10 2 5-4 3-4-2-7-15-4-10-1-6z" fill="#484F52"/>
<path transform="translate(932,426)" d="m0 0 4 1 1 4-4-2-4 2 1 4 3 6 3 2h7l15-4 4-3 5 2 1 2v7l-2-4v-4l-35 12v5l15-5h7l-1 4-4 5-5 5-2 1v-6l-5-2h-5l-3-4-1-4 1-3h-2l-8-16 1-2 8 15 2 1 2-2-5-11 1-4z" fill="#D99C2B"/>
<path transform="translate(587,201)" d="m0 0 4 1 2 3 2 9 1 27h-7l-2-3-1-10-2-2-4 8-3 1 3-9 5-10 2 3 2 13 1 7 5 1-2-18-3-18-7 1-3 10-5 14h-3l-12-19-1-3-7 1 1 13v19h-1l-1-7-1-17-1-10 3-2h6l5 5 8 13h3l5-11 3-7z" fill="#C2BCAB"/>
<path transform="translate(658,492)" d="m0 0h2v2l6 1-3 2-12 5-5 4-5 3-11 12-12 6h-7l-2-1-1-6 7-3 10-2 7-4 4-2 4-3 2-4 7-5h3l1-3z" fill="#DAA730"/>
<path transform="translate(821,469)" d="m0 0h8l1 1 12 1v1l-13 1-6 3-12 3-3 2h-3l-1 2-8 4-1 2-10 6h-3l-1 3-3 1-3 3-3 1 1-4h3l1-4 5-4h2l2-4 3-4 5-1v-1l6-1 1-5h8l2-4z" fill="#2E4154"/>
<path transform="translate(272,393)" d="m0 0 7 1 20 10 1 2-9-3-15-7h-3l1 3 12 7 7 3-2 3-28 6-2 1v3l16 8 13 7 4-2 2-2-1 5-2 2h-5l1 3-4-1-3 9-2 5-5-1-5-4 1-6h1l1 6 6 3 3-9 1-7-10-6-3-3-11-6-1-3 5-5 6-2 15-2 3-1-6-4-7-4-3-2z" fill="#C0BEB4"/>
<path transform="translate(849,712)" d="m0 0 1 3-6 10-7 7-11 7-20 6-11 2h-24l-1-2 22-2 12-4 3-2 11-1 1-2 11-2 5-3 5-6 6-5z" fill="#403E39"/>
<path transform="translate(365,299)" d="m0 0 10 4 3 5-3 6-1 4-1 5 1 6-2 3-3-1-5-12-5-14v-3h2l2 7 1-9z" fill="#464E51"/>
<path transform="translate(820,523)" d="m0 0m-1 1h11v2h5v1l-8 2-3 2-5 2-3 3h-2l-2 4-3 1-1 3h-3l-1 4h-2v3l-4 1v2h-2v2h-2l-2 6h-2l-1 4-5 3-2-1 4-5 2-4 4-6h2l2-4h2l2-4 4-5 1-2h3l2-5 5-7z" fill="#2E4154"/>
<path transform="translate(904,341)" d="m0 0 4 4-1 5-25 20-4-2-2-4 26-22z" fill="#413E38"/>
<path transform="translate(324,327)" d="m0 0h8l5 4 3 5v6l17 3v4l-6 5-14-1-1 1 7 7-1 4-2 1v-5l-8-6-1-3 4-2h19l1-4-15-1-2-1-2-10-4-4h-7l-8 6-5 6 1 4 10 10 7 6h-3l-10-9-9-7v-5l9-10z" fill="#C1BDB1"/>
<path transform="translate(953,500)" d="m0 0 5 2 1-1h13l6 3h5l-2 4h-8l-2 4-9 7-5 2-3-1 3-3-1-12-1-2-7-1v-1z" fill="#42413D"/>
<path transform="translate(673,208)" d="m0 0h7l-1 12-4 25-5 1-2-1v-13z" fill="#463E38"/>
<path transform="translate(225,542)" d="m0 0 25 2 9 1 2 1 1 4-1 3-18-1-14-1-5-2z" fill="#4A5153"/>
<path transform="translate(273,395)" d="m0 0 5 1 22 10 7 4-2 5-6 2h-17v-2l7-1v-2l3-2-18-10-2-4z" fill="#444D51"/>
<path transform="translate(639,480)" d="m0 0 4 1-1 5-10 8-9 5-4 1h-9l-1-4 5-1v-2l8-4 5-2 8-6z" fill="#EFCA37"/>
<path transform="translate(628,371)" d="m0 0h16l7 3 5 5 4 6 1 5-5-5-2-4h-2v-2h-7l-8-1-2 1-4-1-10 4-3 1-2 6-4 1 1-5 5-6h2l1-3 4-2z" fill="#2E4155"/>
<path transform="translate(271,493)" d="m0 0 4 4 5 2 1 1 13 2 20 6 12 3 21 6 9 3 12 3 17 5v1l-8-1-63-17-31-8-14-4 1-5z" fill="#EFEFEB"/>
<path transform="translate(339,313)" d="m0 0 4 1 2 4 4 2 16 16-1 4-4 2-23-23-2-5z" fill="#474F52"/>
<path transform="translate(738,225)" d="m0 0 6 1-2 4-1 18h-1v-15l-5 5-4 5-5 5-6 9-6-1-2-4 5-3 9-11 10-12z" fill="#3D4448"/>
<path transform="translate(284,380)" d="m0 0 4 1 23 13 4 3-1 4-1 2-6-1-9-6-14-9-2-4z" fill="#495052"/>
<path transform="translate(651,581)" d="m0 0h5l1 7-5 2-16 2-4 1v2l-10 1 1-3 3-3 2-4 5-2 1-1 13-1z" fill="#ECC01F"/>
<path transform="translate(393,268)" d="m0 0 4 2 7 10 7 11 4 6v2l-5 2-9-10-6-10-5-9 1-3z" fill="#495052"/>
<path transform="translate(974,479)" d="m0 0 2 1-7 3-9 4h-2l2 5 4 1 8 3 10 1 5 4 1 6-4 2 1-6-3-3-33-4-3-3-2 2v-6l11-4z" fill="#D9992C"/>
<path transform="translate(617,210)" d="m0 0 3 2 3 11v4l-11 1v3l-3 3-2 5h-6v-6l3-7 1 2 2-1 2-6 4-4z" fill="#484E4F"/>
<path transform="translate(673,691)" d="m0 0h4v2l-8 4h-2v2l-9 7-5 2h-10l-1-1-16-2-2-2h7l4 1 7-2 16-5 10-5z" fill="#2E4154"/>
<path transform="translate(359,290)" d="m0 0h6l16 8 17 10v4l-6 4-5-1-1-1h-5l-5 4-1 5 1 7-5 5h-2l-5-11-4-12 1-4 7 19 2 4 2 1 1-6-1-7 8-7 6-1 6 2 3-2v-2l-12-7-12-6-5-3h-6l-2 1v6l1 5-3-3-1-8z" fill="#C0BEB7"/>
<path transform="translate(833,274)" d="m0 0 5 5 4 9-2 6-4 8 6-1-6 8-7 8 3 3 8 7 1 2-4-2-8-6-2-1 1-8 1-2h2l-2-2-11 1-12-6-7-5 2-1 13 8 7 1 9-3 6-7 2-4v-7l-4-8z" fill="#D9962C"/>
<path transform="translate(492,219)" d="m0 0 10 2 7 6-1 2-6-5-4-1h-10l-8 4-4 5-2 9 3 9 5 5 6 3h7l8-3 6-5 2-6-1-10-1-4h2l2 5v11l-3 6-7 6-7 3h-9l-8-5-4-5-3-6v-11l5-9 8-5z" fill="#C2BCAC"/>
<path transform="translate(933,398)" d="m0 0h5l3 5v2l5-1v-2h2l-1 4-5 1v2h5l1-3 3 1v2l-6 4-20 9-3-1 13-7v-13l-5 2-4 2-2 3-6 2-7 4-4-2-1-4 3 3 5-2 18-10z" fill="#D99B2B"/>
<path transform="translate(549,212)" d="m0 0 2 4 1 27h-3l-8-10-1-4 3-5-2-11 3 2v2l4-1z" fill="#FAFAF8"/>
<path transform="translate(734,709)" d="m0 0 2 1v7l3 3v-2l2 1-8 15-4 10-2 10h-3v-8l4-20 2-2 3-10z" fill="#3F3B35"/>
<path transform="translate(799,475)" d="m0 0 2 1-1 5-5 1v1l-6 1-5 7-5 4h-2l-1 4h-3l-1 4h-3l-2 4-5 5-5 3 2-5 9-11 10-10 17-12z" fill="#35444D"/>
<path transform="translate(506,231)" d="m0 0h4l2 8-1 9-5 6-7 4-12-1-1-2 12-3 5-5 2-5v-9z" fill="#444E52"/>
<path transform="translate(428,244)" d="m0 0 5 1 6 9 4 8 1 4-3-3-9-15-3-1-1 3 8 14v4l-7-1-17-6-7-1 4 8-1 3-5-9v-3l4-2 5 1 20 7-4-10-3-5 1-4z" fill="#C2BCAD"/>
<path transform="translate(654,448)" d="m0 0h15v6h-13l-10 4-8 5-3-2v-2l5-4h2l2-4 3-2z" fill="#EBC237"/>
<path transform="translate(949,409)" d="m0 0h2l8 17 1 5-5 1-6-12-6 1-1 3-1 4-1-1v-6l1-2-2-1 1-4 8-4z" fill="#43423E"/>
<path transform="translate(588,204)" d="m0 0h3l3 18 1 18h-5l-1-1-1-7-1-27z" fill="#3F4A50"/>
<path transform="translate(314,363)" d="m0 0 5 1-1 5-1 2 5-1 3-2 7 1 3 3-2 5-5 4 2-4 2-6-5 2-4 6-2 2h-5l-4-4v-4l3-3 3-5h-5z" fill="#E5E6E3"/>
<path transform="translate(459,231)" d="m0 0h5l1 1v6l-8 4h-2v8l5-1 5-2h3l-1 2-9 4-5-2-2-3 1-7 10-5 1-3-13 5-6 3 1 10-2-2-3-9 3-3 10-4z" fill="#C3BBA5"/>
<path transform="translate(878,322)" d="m0 0h7l8 6 3 6-1 4-3 1-4-8-5-3-4-1-1 6-3 4-1-4h-2l1-7z" fill="#443F3C"/>
<path transform="translate(983,505)" d="m0 0h2l-1 4-27 18h-4l-1-5 12-5 8-7 1-2 8-1z" fill="#403E38"/>
<path transform="translate(390,267)" d="m0 0h7l7 10 11 16 2 6-6 4-4-2-10-14-9-13v-5zm3 1-3 3 3 7 9 14 8 9 5-2-2-5-11-17-7-9z" fill="#C2BCAC"/>
<path transform="translate(814,393)" d="m0 0h11v1l-22 4-21 7-15 7-14 7-16 10-4 1 5-5 17-10 16-8 20-8 14-4z" fill="#E8BE32"/>
<path transform="translate(597,209)" d="m0 0 4 1 5 2-1 10-3 7-4 1-2-5-1-14z" fill="#FCFCFB"/>
<path transform="translate(971,476)" d="m0 0h6v3l-31 10-4-1-1-3 6-3 15-2v-2z" fill="#41403B"/>
<path transform="translate(825,467)" d="m0 0 15 1 12 4 2 1v13l-2-1-3-8-3-4-16-2-1-1h-8l-10 2-2 3h-8l4-3 11-4z" fill="#35454E"/>
<path transform="translate(945,419)" d="m0 0 5 1 4 7 1 4 7-1-2 3-9 2-2-1v-5l-5-1 2 8-6 2v-3h3l-2-13z" fill="#D99D2B"/>
<path transform="translate(890,371)" d="m0 0h3l2 12 8 1 2-6h1l1 11-3 1h-7l-6-5-4-8 1-5z" fill="#434543"/>
<path transform="translate(591,205)" d="m0 0h2l2 9 1 27h-7l-2-3-1-10-2-2-4 8-3 1 3-9 5-10 2 3 2 13 1 7 5 1-2-18z" fill="#C3BCA7"/>
<path transform="translate(244,461)" d="m0 0 7 1 2 4-4 5-1 2v9l4 4 2 1h13l-3 3h-10l-6-3-4-5v-7l5-8 1-3h-5l-4 7-2 4-1-6 4-7z" fill="#C2BCAC"/>
<path transform="translate(488,227)" d="m0 0h9l7 8 1 8-3 7-4 3-9 1-5-4-4-9v-6l5-7zm0 2-5 5v10l3 6 4 2h7l6-6v-9l-6-8z" fill="#C5B99A"/>
<path transform="translate(658,492)" d="m0 0h2v2l6 1-3 2-12 5-5 4-5 3-7 7-1-2 1-3 5-4 2-4 8-6h3l1-3z" fill="#DFB759"/>
<path transform="translate(608,358)" d="m0 0h2v16l8-2 6-4 6-2h16l8 4-2 1-10-3-13 1-10 5-6 7-2 2v-2h-2l-1-5z" fill="#EBC535"/>
<path transform="translate(325,335)" d="m0 0 6 1 2 3v6l-2 3h-7l-5-5 1-5z" fill="#C3BBA5"/>
<path transform="translate(939,467)" d="m0 0 2 3 19 3 1 2-4 5-13 4-3 1v-2l3-3h2v-2h2v-4l-9-2z" fill="#D9982C"/>
<path transform="translate(648,472)" d="m0 0h10l-3 2 7 1v1l-12 2-7 5-1-2-7 1-7 5-2 2v-3l13-10z" fill="#DAA62B"/>
<path transform="translate(255,428)" d="m0 0 6 1v7l-2 10 5 1h3l-3 3-7-2-1-1v-6l3-9-3-1-7 16v4l20 9-3 1-15-6-5-4 1-5z" fill="#BFBFBB"/>
<path transform="translate(738,233)" d="m0 0h2v17l-2 2-5-3-6-2 2-4h2l2-4z" fill="#D99E2B"/>
<path transform="translate(524,217)" d="m0 0h8l3 4-1 5-3 3-5 1-3-3-1-8z" fill="#F1F1ED"/>
<path transform="translate(761,697)" d="m0 0 3 1-7 9-7 12-8 18-2-4 4-11 15-24z" fill="#D9982C"/>
<path transform="translate(960,453)" d="m0 0v3l-3 4 2 5-1 2h16l5 3 1 8h-3l-1-7-1-1-24-2-3-2 7-8z" fill="#DA9E2B"/>
<path transform="translate(365,299)" d="m0 0 10 4 3 5-2 4-4 2-4-1-4-10z" fill="#C1BDAF"/>
<path transform="translate(822,681)" d="m0 0 14 1 5 2-1 8h-2v-2l-7-1-1-1h-7l-2-1z" fill="#E79720"/>
<path transform="translate(718,446)" d="m0 0 1 2-8 16-10 22-4 8-2-2 1-4 6-11 4-10 8-17z" fill="#ECC335"/>
<path transform="translate(283,378)" d="m0 0 6 1 23 14 5 4-1 4-4 4-4-1 1-2 4 1 1-6-17-10-10-6h-3l-1 4 10 7 3 3-6-2-10-7 1-5z" fill="#C3BCA7"/>
<path transform="translate(849,289)" d="m0 0 6 1 10 9 5 4-1 5-5 1-3-3-4-1v-2h-4v5l3 3-1 2-7-6 4-7 3-1 9 7h4l-1-3-8-7-7-5h-3l-2 4-2 2 1-4z" fill="#D9932D"/>
<path transform="translate(772,238)" d="m0 0 6 1 3 3 1 15 7-1-5 5-5 1-1-20-4-2v26l-2 7h-1l1-11z" fill="#D9892F"/>
<path transform="translate(961,502)" d="m0 0 13 1 2 4-10 7h-3l-2-6z" fill="#D9902D"/>
<path transform="translate(758,649)" d="m0 0v3l-7 11-7 15-1-2-5 1-4 4-2-1 10-11 8-10z" fill="#DA9B2B"/>
<path transform="translate(981,531)" d="m0 0h6l3 3 1 3v12l-2 2h-4v-12l-2-3-4-2 3-1z" fill="#40403C"/>
<path transform="translate(595,215)" d="m0 0h1l2 14 4-1 5-13h2l-2 7-5 11-1 6h5l-1 2h-9l-1-10z" fill="#DFDCD2"/>
<path transform="translate(912,363)" d="m0 0 4 1 4 9 1 3h-3l-2-3-4-1 2 7-1 7-3 1v-12l-1-10z" fill="#D99B2B"/>
<path transform="translate(444,267)" d="m0 0h2l5 9-2 4-7 1-14-5-8-3 3 6-1 2-5-8v-3l9 1 16 7h5l-1-6z" fill="#C1BDB0"/>
<path transform="translate(624,205)" d="m0 0h2l6 18 3 10 1 2v6h-8l-3-6-6-2h-8l-2 7h-3l4-9h10l6 2 2 3v3l7 1-9-26-2-5z" fill="#D98C2E"/>
<path transform="translate(792,692)" d="m0 0 6 1 2 1v7l-3 2h-7l-2-2v-7z" fill="#F1F2F1"/>
<path transform="translate(975,470)" d="m0 0 2 1 1 7-1-2-15 2v2l-7 1 5-6v-1l-5-1 4-2 14 1z" fill="#4A5153"/>
<path transform="translate(927,376)" d="m0 0 4 1 5 4 7 12 3 6-1 2-12-20-4-2 2 7 2 5-9 5-2-1 4-7h2l-2-10z" fill="#D9992C"/>
<path transform="translate(879,327)" d="m0 0 6 1 5 4 3 8-3 2-2-6h-5v6l-3-3-2-6z" fill="#D99B2B"/>
<path transform="translate(617,210)" d="m0 0 3 2 3 11v4l-10-1-1-3 3-9z" fill="#DAA62A"/>
<path transform="translate(608,157)" d="m0 0 2 2 1 37h2l1 5-1 3-3 1-2-11z" fill="#EEC936"/>
<path transform="translate(273,431)" d="m0 0 6 2 8 4h5l4-4-1 5-2 2h-5l1 3-4-1-3 9-2 5-5-1-5-4 1-6h1l1 6 6 3 3-9 1-7-10-6z" fill="#D2D0C7"/>
<path transform="translate(978,535)" d="m0 0h5l3 4-1 12 5-2 1-12h1v13l-2 2h-6l-2-3v-9h-4l-1 6h-2l2-10z" fill="#D9942D"/>
<path transform="translate(586,447)" d="m0 0 4 4 1 4-5 3-7 2-5-1v-3l9-5h2z" fill="#EFEFEB"/>
<path transform="translate(860,336)" d="m0 0 4 1 4 5h3l2-6 3 4 1 2v6l-7 2-5-5-3-7z" fill="#D99B2B"/>
<path transform="translate(956,505)" d="m0 0h1l1 12-5 5v5l7-3 9-6 2 1-9 7-1 5h2v5l-2-1 1-3-6 1-1-3-3-1-1-8 4-4z" fill="#D9942D"/>
<path transform="translate(236,472)" d="m0 0 1 4 1 13-8-1-19-5-23-5-1-2 16 3 20 4 10 3 2-2v-9z" fill="#EFEFEB"/>
<path transform="translate(509,230)" d="m0 0h2l2 5v11l-3 6-7 6-7 3h-9l-8-5-3-4 12 6h7l8-3 6-5 2-6-1-10z" fill="#C0BEB8"/>
<path transform="translate(445,251)" d="m0 0 3 3 7 16 2 3 5-2-4-10v-5l7-3h3v2l-6 3h-2l3 8 1 6-4 3h-5l-4-7-4-9z" fill="#BEC0C1"/>
<path transform="translate(554,218)" d="m0 0h2l2 4 1 21h-5z" fill="#384145"/>
<path transform="translate(410,268)" d="m0 0 5 4v2h2l4 7v5l6 2v3l-5 1-11-18z" fill="#3D4549"/>
<path transform="translate(559,219)" d="m0 0 4 4 7 11 2 2 4-1 3-1-2 5-7-1-6-8-3-3v14l-2 1z" fill="#C2BDAD"/>
<path transform="translate(587,203)" d="m0 0 3 1-2 1v17l-2-3-1-2-2 5h-2l1-9-1-4 2-4z" fill="#495052"/>
<path transform="translate(719,498)" d="m0 0 1 2-7 11-12 16-7 10-2 2-1-4 2-3h2l2-5h2v-2h2l2-4 2-5h2v-2l5-5 5-10z" fill="#403D37"/>
<path transform="translate(261,466)" d="m0 0 10 2v7l-6-1-5 4-2-1 1-6z" fill="#495052"/>
<path transform="translate(516,226)" d="m0 0h1l3 16 2 7 4-1v-12l2-2 4 1 4 5-4-2-4-1 1 13-2 1h-7l-4-11-1-11z" fill="#C5B999"/>
<path transform="translate(959,444)" d="m0 0h4l-1 3-4 1-1 3-4 3v-3l-10 2-8 3h-4v-2l10-3 7-3 10-3z" fill="#4A5153"/>
<path transform="translate(540,226)" d="m0 0 1 4 4 7 4 4v2l4-3 1 3 7-2-1 3-9 1-6 2-6-2-4-3 1-2 6 4h5l-3-5-6-7-1-3z" fill="#BFBFBB"/>
<path transform="translate(607,687)" d="m0 0h1l2 7 9 4 15 4 7 1v1l-8 1-15-4-10-2-2-3z" fill="#39454C"/>
<path transform="translate(272,393)" d="m0 0 7 1 20 10 1 2-9-3-15-7h-3l1 3 9 5v2l-6-2-6-4z" fill="#C0BEB7"/>
<path transform="translate(584,225)" d="m0 0 3 3v10l-4 1h-3l-1 1h-7v-1l5-1 6-12z" fill="#EFEFEB"/>
<path transform="translate(614,518)" d="m0 0 3 1 4 4-1 3-2 1h-7l-2-1-1-6z" fill="#ECC633"/>
<path transform="translate(303,415)" d="m0 0 2 1-3 2-9 2-13 1 3 4 9 5-2 1-15-8v-3l10-2 14-2z" fill="#C0BEB3"/>
<path transform="translate(328,368)" d="m0 0 5 2 2 4-6 7v-3l2-2 1-5-5 2-4 6-2 2h-5l-4-4v-4l3-1 2 6h4l5-9z" fill="#C2BCAC"/>
<path transform="translate(731,729)" d="m0 0 2 1-1 7-3 7-2 10h-3v-8l2-7 2-2z" fill="#3A4244"/>
<path transform="translate(900,366)" d="m0 0 2 4 3 8v5l-2 2h-5l-4-4-1-8h2l2 7 4-1z" fill="#D98F2E"/>
<path transform="translate(610,616)" d="m0 0 6 4-4 1-1 6v7l1 4-4-1-1-5v-14h3z" fill="#E6BC32"/>
<path transform="translate(285,442)" d="m0 0 5 2-3 9-6 7-1-4 3-10z" fill="#424D52"/>
<path transform="translate(662,513)" d="m0 0 2 1-3 3-2 5h-7l-4 5h-2l-5 5-4 3 2-4 8-8 13-9z" fill="#EEC936"/>
<path transform="translate(273,395)" d="m0 0 5 1 4 2v2l5 2 4 4h-6l-12-7z" fill="#3E403F"/>
<path transform="translate(360,308)" d="m0 0 2 3 7 18 3 3 1-6-1-7 3-1 1 12-5 5h-2l-5-11-4-12z" fill="#C3BBA6"/>
<path transform="translate(561,227)" d="m0 0 3 1 6 10-4 1-1 2h-3l-1 2-1-11z" fill="#EFEFEB"/>
<path transform="translate(271,469)" d="m0 0 5 1 1 9-1 5h-2l-1 2-3-12z" fill="#434849"/>
<path transform="translate(464,238)" d="m0 0 1 2-1 3h-4v3l5 1-8 4-3-3 1-6z" fill="#EFEFEB"/>
<path transform="translate(706,246)" d="m0 0h4l1 5-1 1h-13l-3-2 4-1v-2z" fill="#4C403C"/>
<path transform="translate(511,524)" d="m0 0 1 2 3 1-3 2-2 4-6 7-1 3h-2l1-6 5-9z" fill="#314254"/>
<path transform="translate(792,743)" d="m0 0h5v2l2 1-4 1h-24l-1-2z" fill="#3F3F3B"/>
<path transform="translate(843,311)" d="m0 0 6 2 3 3 3 1v2l-4-1-5-3-4 1 1 5 7 6-1 5-2-1 1-4-4-2-6-5 1-5z" fill="#D88330"/>
<path transform="translate(698,221)" d="m0 0h10l6 4 1 2h-3v-2l-5-1h-9l-3 3h-2v12l2 5-4-4v-11l3-5z" fill="#D98F2E"/>
<path transform="translate(337,352)" d="m0 0h7l7 2-3 2-4 4-1 4-3-5-2-4-3-1z" fill="#EFEFEB"/>
<path transform="translate(589,219)" d="m0 0 2 3 2 9 2 4v5h-5l-1-1z" fill="#3A4347"/>
<path transform="translate(788,525)" d="m0 0 2 1-7 9-5 3v2l-5 4-8 11v-3l8-11 9-10z" fill="#E8B830"/>
<path transform="translate(754,607)" d="m0 0 3 3-4 3-2 6-4 5-4 2 1-6 2-3h2l1-4 3-4h2z" fill="#2E4154"/>
<path transform="translate(303,350)" d="m0 0 4 1 2 4-6 10 2 4 5 1-2 2-5-1-4-4 2-5 5-7v-2h-4z" fill="#C1BDAF"/>
<path transform="translate(902,340)" d="m0 0 5 1-1 3-2-2-10 8-13 11-3 1 2-4 11-9z" fill="#D9912D"/>
<path transform="translate(918,361)" d="m0 0 5 5 2 5-1 4-3 1-4-9v-5z" fill="#40413F"/>
<path transform="translate(455,232)" d="m0 0h3l-1 3-13 6 1 10-2-2-3-9 3-3 10-4z" fill="#C3BCA7"/>
<path transform="translate(971,532)" d="m0 0 2 1-4 11-2 5h-5l-3-4v-7h1l1 5 4 1z" fill="#D9902D"/>
<path transform="translate(524,217)" d="m0 0h8l3 4-1 5-3 3-5 1-3-3-1-8zm4 1-4 2 1 8 7-1v-7z" fill="#C4BBA2"/>
<path transform="translate(289,413)" d="m0 0h14v3l-4 1h-17v-2z" fill="#3A4347"/>
<path transform="translate(746,251)" d="m0 0h1v17l-7-1-3-4v-6l-9-4 2-1 9 3 1 1v7l3 3 3 1z" fill="#D9962C"/>
<path transform="translate(248,453)" d="m0 0 10 4v1h-5v6l-9-3 2-4z" fill="#EFEFEB"/>
<path transform="translate(933,398)" d="m0 0 2 1-9 6-2 3-6 2-7 4-4-2-1-4 3 3 5-2 18-10z" fill="#D98A2F"/>
<path transform="translate(902,342)" d="m0 0 2 1-5 8v3h-3v2l-3 1-1-4-2-1z" fill="#4A5153"/>
<path transform="translate(686,617)" d="m0 0 2 1-14 14-7 4-4 3h-2v-2l13-9z" fill="#3A4449"/>
<path transform="translate(577,475)" d="m0 0 2 1-3 2-10 3-11 5h-2l-1 2-4 3-4-1 11-7 18-7z" fill="#384750"/>
<path transform="translate(761,412)" d="m0 0 2 1-26 16-4 1 5-5 17-10z" fill="#EBC238"/>
<path transform="translate(679,626)" d="m0 0h4l-3 6-7 1v2l-4 1v2h-2v2h-6l10-8 5-2z" fill="#2E4154"/>
<path transform="translate(636,505)" d="m0 0 5 1-4 4v1l-9 3-6 3h-3v-2l12-6z" fill="#413E39"/>
<path transform="translate(959,501)" d="m0 0h13l6 3h5l-2 4h-6l-1-4-13-2 1 9-2-2z" fill="#4A5153"/>
<path transform="translate(261,430)" d="m0 0h1v9l1 3 4 2 1-2-1 4-5 2-4-2 2-10z" fill="#EBEBE8"/>
<path transform="translate(727,247)" d="m0 0 9 2 2 2 2-1v6l-12-4-2-3z" fill="#404749"/>
<path transform="translate(582,212)" d="m0 0 1 2-1 10-4 9-3-1 3-10 1-7z" fill="#424646"/>
<path transform="translate(549,212)" d="m0 0 2 4v9l-1-4-4 1-2 4-2-1 1-4-2-8 3 2v2l4-1z" fill="#EFEFEB"/>
<path transform="translate(668,692)" d="m0 0 2 1-3 3-11 6-6 1h-4v-2l15-5z" fill="#384349"/>
<path transform="translate(769,503)" d="m0 0 4 1-1 3-1-1-3 6h-3l-6 7v-3l3-5 5-5z" fill="#2E4154"/>
<path transform="translate(326,337)" d="m0 0 4 2v6l-2 2h-3v-2h-2v-2h-2l1-3z" fill="#EFEFEB"/>
<path transform="translate(797,521)" d="m0 0v3l-3 4h-2v2l-8 6-1 2-2-1v-2l5-5 4-6 4-1z" fill="#F1CF38"/>
<path transform="translate(661,483)" d="m0 0 3 3 2 3-1 2-9 3-4-1 5-2 1-5 3-1z" fill="#403C36"/>
<path transform="translate(845,470)" d="m0 0 9 3v13l-2-1-3-8z" fill="#34444D"/>
<path transform="translate(300,353)" d="m0 0 2 1-8 11-2 5 8 7h-3l-8-6 1-4 7-11z" fill="#C2BCA8"/>
<path transform="translate(334,328)" d="m0 0 5 2 4 4 1 6 8 3v1l-10-1-2-1-2-8z" fill="#EFEFEB"/>
<path transform="translate(390,267)" d="m0 0h5l-4 2 1 6 9 14-1 2-7-10-5-7v-5z" fill="#C2BCAB"/>
<path transform="translate(257,473)" d="m0 0 1 4h3l4-4 7 3-1 7-4 4 3-10-7 2h-6z" fill="#C3BCA8"/>
<path transform="translate(335,350)" d="m0 0h5v2l-4 2 7 7-1 4-2 1v-5l-8-6-1-3z" fill="#C2BDAD"/>
<path transform="translate(799,297)" d="m0 0 5 2 10 6 7 1 8-1-2 3-9 1-12-6-7-5z" fill="#D98B2E"/>
<path transform="translate(820,517)" d="m0 0 10 2 2 3-17 1 1-5z" fill="#E9BC21"/>
<path transform="translate(612,425)" d="m0 0h8l3 2v4h-15l4-2z" fill="#E7B922"/>
<path transform="translate(609,680)" d="m0 0h31v1l-6 1h-24l-1 11h-1v-12z" fill="#D99C2B"/>
<path transform="translate(788,480)" d="m0 0 2 1-14 11-4 2v-5l5-2 8-6z" fill="#ECC435"/>
<path transform="translate(849,424)" d="m0 0 6 1 1 1v30h-1l-1-29h-12v-1z" fill="#D9A42A"/>
<path transform="translate(526,207)" d="m0 0h7l7 4-2 1-7-2-19 3v-2l10-2z" fill="#EFEFEB"/>
<path transform="translate(307,357)" d="m0 0 1 3v8l3 1-1 1h-5l-3-3 2-5z" fill="#EDEDE9"/>
<path transform="translate(488,227)" d="m0 0h9l7 8-1 3-6-8h-9l-5 2 2-4z" fill="#BFBFBA"/>
<path transform="translate(761,697)" d="m0 0 3 1-7 9-4 6-2-1 2-5 3-5z" fill="#DA972B"/>
<path transform="translate(509,230)" d="m0 0h2l2 5v11l-3 6-7 6h-2v-2l8-6 2-6-1-10z" fill="#C1BDB1"/>
<path transform="translate(429,244)" d="m0 0 5 2 6 10 4 7-1 3-11-18-4-1z" fill="#C1BDAE"/>
<path transform="translate(788,400)" d="m0 0v3l-15 6-8 4h-2v-2l12-6z" fill="#E9BD34"/>
<path transform="translate(910,356)" d="m0 0 7 1 7 8 3 5-1 5-2-1-1-5-4-7-4-3h-8z" fill="#D9912D"/>
<path transform="translate(833,293)" d="m0 0 3 1-2 6h-3l-3 1h-5l6-7 4 1z" fill="#4A5153"/>
<path transform="translate(283,405)" d="m0 0 6 2 4 3-2 2-15 3v-2l11-3-4-3z" fill="#C2BCAA"/>
<path transform="translate(282,399)" d="m0 0 5 1 12 6v1l-6 1-2 1-5-2 4-2-5-3-1-2z" fill="#485052"/>
<path transform="translate(451,268)" d="m0 0 3 4 1 2 5 1v1l-7 2-4 2 1-4-3-5 1-2 2 1z" fill="#EFEFEB"/>
<path transform="translate(817,264)" d="m0 0 6 1 5 5-10-4-6 10-5 5 1-4 7-10z" fill="#D9912D"/>
<path transform="translate(608,591)" d="m0 0h1l1 27h-3v14h-1v-16h2z" fill="#DCDDDC"/>
<path transform="translate(898,356)" d="m0 0 2 1-8 8-7 4-3 3-4-2 1-2h4l10-8z" fill="#D9902D"/>
<path transform="translate(242,530)" d="m0 0 11 1 3 2-2 1h-9l-7-2z" fill="#364147"/>
<path transform="translate(624,485)" d="m0 0 3 1-10 7h-3v2l-5 1v-3l14-7z" fill="#4E4737"/>
<path transform="translate(259,434)" d="m0 0h2l-2 12 5 1h3l-3 3-7-2-1-1v-6z" fill="#C2BCA8"/>
<path transform="translate(888,325)" d="m0 0 4 2 4 7-1 4-3 1-2-5 1-5-4-3z" fill="#42413E"/>
<path transform="translate(610,231)" d="m0 0h10l6 2 2 3-1 3-2-4-6-2h-8l-2 7h-3z" fill="#D9902E"/>
<path transform="translate(845,530)" d="m0 0h4l2 6 2 1v11h-1l-1-8-5-5z" fill="#2E4155"/>
<path transform="translate(286,453)" d="m0 0 1 3-5 10-4 1v-2l-9-2v-2l13 3 3-9z" fill="#C1C1BE"/>
<path transform="translate(608,470)" d="m0 0 7 1 8 2v1l-5 1h-10l-1-2z" fill="#E2B126"/>
<path transform="translate(336,300)" d="m0 0 4 1v6l-5 3 2-7-5 6-1-3z" fill="#BFBFBC"/>
<path transform="translate(359,290)" d="m0 0h6l3 3h-8l-2 1v6l1 5-3-3-1-8z" fill="#BEC0C0"/>
<path transform="translate(971,509)" d="m0 0 2 1-9 8-7 3-3-1 3-3 2-4v3h4l3-3z" fill="#4A5153"/>
<path transform="translate(962,436)" d="m0 0 5 2 1 2v7l-2-4v-4l-12 4 1-3z" fill="#D9932D"/>
<path transform="translate(615,740)" d="m0 0h6l1 5-7 1-1 2-2-1 2-5z" fill="#2E4155"/>
<path transform="translate(466,248)" d="m0 0 2 1v4l-4 2h-6v-3z" fill="#3B4850"/>
<path transform="translate(516,226)" d="m0 0h1l3 16 1 5h-2l-3-7-1-11z" fill="#C4BA9E"/>
<path transform="translate(738,225)" d="m0 0 6 1-2 4-1 18h-1v-15l-3 1z" fill="#4A5153"/>
<path transform="translate(572,700)" d="m0 0 14 2 7 2v2l-17-3-4-1z" fill="#394851"/>
<path transform="translate(956,505)" d="m0 0h1l1 12-5 5v6l2 1h-3l-1-8 4-4z" fill="#D99C2B"/>
<path transform="translate(816,468)" d="m0 0 3 1-1 2-7 1-2 3h-8l4-3z" fill="#37444A"/>
<path transform="translate(652,519)" d="m0 0h2v2l-4 3-2 3h-2l-5 5-4 3 2-4 8-8z" fill="#E8BA32"/>
<path transform="translate(508,233)" d="m0 0 2 2v10l-4-1v-9z" fill="#3F3A33"/>
<path transform="translate(564,229)" d="m0 0 4 2 4 5 4-1 3-1-2 5-7-1-6-8z" fill="#C0BEB8"/>
<path transform="translate(741,227)" d="m0 0h4v9l-2-1-1 9h-1z" fill="#3F3A33"/>
<path transform="translate(732,709)" d="m0 0 2 3v5l-4 10-2-1z" fill="#38444A"/>
<path transform="translate(758,649)" d="m0 0v3l-7 11-4 2 1-4 6-7z" fill="#D4CBB0"/>
<path transform="translate(567,536)" d="m0 0 3 3-2 4-4 2-1-4 1-4z" fill="#2F4154"/>
<path transform="translate(810,526)" d="m0 0h2l-1 3-6 5-1 2h-2l-1 3-1-3 5-7z" fill="#EEBE38"/>
<path transform="translate(338,346)" d="m0 0h9l4 2-1 1-10 1-3-1z" fill="#35424A"/>
<path transform="translate(780,253)" d="m0 0 2 4 7-1-5 5-5 1v-8z" fill="#D9A32A"/>
<path transform="translate(618,194)" d="m0 0h8l-5 5-3 1-2-1 1-4z" fill="#46423E"/>
<path transform="translate(699,525)" d="m0 0h2l-2 5-6 9-2-1 1-4 1-2h2l2-5h2z" fill="#4C4434"/>
<path transform="translate(382,311)" d="m0 0 6 1 4 2v2l-5-1-1-1h-5l-5 4-2-1z" fill="#BEC0BF"/>
<path transform="translate(387,302)" d="m0 0 11 6v4l-4 3-2-1 3-3v-2l-8-5z" fill="#BFBFBB"/>
<path transform="translate(492,220)" d="m0 0h8l6 4 3 3-1 2-6-5-10-2z" fill="#C0BEB7"/>
<path transform="translate(609,200)" d="m0 0 2 4h2l-1 7-1 4h-2z" fill="#D2A12C"/>
<path transform="translate(607,687)" d="m0 0h1l2 7 4 3v2h-6l-2-3z" fill="#374248"/>
<path transform="translate(608,588)" d="m0 0 4 2 4 4h-5l1 5-2 2-2-10z" fill="#424A4D"/>
<path transform="translate(617,495)" d="m0 0h11l-3 3-6 2h-9v-1l7-1z" fill="#DAA62A"/>
<path transform="translate(602,471)" d="m0 0h6l-1 2-3 1v1h-7l-5-2v-1z" fill="#394851"/>
<path transform="translate(244,461)" d="m0 0m-2 1 3 1-6 12-1-6z" fill="#C5BA9D"/>
<path transform="translate(444,267)" d="m0 0h2l5 9-2 4-7 1v-2l5-1-1-6z" fill="#C0BEB7"/>
<path transform="translate(621,749)" d="m0 0 4 1-16 6-2-1 1-3z" fill="#E0B02D"/>
<path transform="translate(608,540)" d="m0 0h1l1 6-2 8 3 1-2 1v10h-1l-1-11v-10z" fill="#DBDCDB"/>
<path transform="translate(608,529)" d="m0 0 1 2 3-1 2 2-3 6h-2l-1 2z" fill="#736947"/>
<path transform="translate(665,490)" d="m0 0 4 1-1 4h-6l-2-1 1-3z" fill="#EAC234"/>
<path transform="translate(817,725)" d="m0 0h2l-2 4-8 8h-2l2-4 3-3z" fill="#D98E2E"/>
<path transform="translate(640,504)" d="m0 0 5 1-5 5-7 6 1-5 5-4z" fill="#EEECE5"/>
<path transform="translate(614,494)" d="m0 0 5 3-2 2h-7v-4z" fill="#EFEFEB"/>
<path transform="translate(271,463)" d="m0 0 7 2v2l3 1-4 2-1-1-8-1 3-3z" fill="#EBEAE3"/>
<path transform="translate(273,395)" d="m0 0 5 1 4 3-6 2-4-3z" fill="#3F494E"/>
<path transform="translate(281,382)" d="m0 0 4 5 11 7-2 1-13-8-1-4z" fill="#BFBFBA"/>
<path transform="translate(803,515)" d="m0 0 2 1-2 3h-3l-4 4-4 2v-3z" fill="#E9BE2C"/>
<path transform="translate(238,472)" d="m0 0h1l1 14-3-1-1-9z" fill="#BEC0BF"/>
<path transform="translate(250,452)" d="m0 0 5 2 14 6-3 1-15-6z" fill="#C0BEB6"/>
<path transform="translate(932,426)" d="m0 0 4 1 1 4-4-2-4 2-2 4-1-6z" fill="#D98530"/>
<path transform="translate(352,346)" d="m0 0h3l-1 4-2 1h-12l2-2 9-1z" fill="#4A5153"/>
<path transform="translate(720,249)" d="m0 0 3 3-2 4-6-1 2-4z" fill="#36454D"/>
<path transform="translate(736,226)" d="m0 0h3l-1 6-2 2v-3l-5 4-2-1z" fill="#4E3E38"/>
<path transform="translate(513,212)" d="m0 0h4v2h-3l2 8v7l-2-4-2-7v-5z" fill="#C0BEB6"/>
<path transform="translate(842,472)" d="m0 0 5 1 4 5 1 7-4-5-2-3 1-2-5-2z" fill="#2E4155"/>
<path transform="translate(313,365)" d="m0 0h5l-2 5-6 2 1-4z" fill="#464844"/>
<path transform="translate(307,342)" d="m0 0 2 4 11 9-2 1-6-3v-3h-3l-2-3z" fill="#EFEFEB"/>
<path transform="translate(720,245)" d="m0 0 2 1-2 4-5 5 5 1-4 1-4-4 5-4z" fill="#4C4340"/>
<path transform="translate(700,221)" d="m0 0h8l6 4 1 2h-3v-2l-13-2z" fill="#D9962C"/>
<path transform="translate(658,472)" d="m0 0h9v2l-3 1h-10l1-2z" fill="#ECE5D2"/>
<path transform="translate(640,455)" d="m0 0h2l1 5-5 3-3-2v-2z" fill="#DBA930"/>
<path transform="translate(880,342)" d="m0 0 2 2-1 5-4 1h-5l4-2 1-5z" fill="#3B4951"/>
<path transform="translate(881,325)" d="m0 0h3v2h4l4 2-1 4-8-5-4-2z" fill="#404A4F"/>
<path transform="translate(420,273)" d="m0 0 5 1 6 2v2h-7l-2 1z" fill="#EFEFEB"/>
<path transform="translate(741,738)" d="m0 0 1 2-1 7-3 4h-2l3-9z" fill="#403D38"/>
<path transform="translate(876,327)" d="m0 0 2 2-1 4-2 4-1-4h-2v-4z" fill="#39474F"/>
<path transform="translate(518,515)" d="m0 0 3 1-2 4-6 5v-3z" fill="#2E4154"/>
<path transform="translate(636,505)" d="m0 0 5 1-4 4v1l-6 1 2-4z" fill="#7C6736"/>
<path transform="translate(959,470)" d="m0 0h16l-2 3-14-1z" fill="#3F3A33"/>
<path transform="translate(911,374)" d="m0 0 2 2 1 7-2 4h-2z" fill="#D98E2E"/>
<path transform="translate(890,371)" d="m0 0h3l-1 5h-2l-1 2-2-1 1-5z" fill="#553E38"/>
<path transform="translate(302,363)" d="m0 0 1 4 2 2 5 1-2 2-5-1-4-4z" fill="#C2BCA9"/>
<path transform="translate(710,247)" d="m0 0h2v2l4 2-3 2-1 2-1-1-9-1v-1l8-1z" fill="#D99F2B"/>
<path transform="translate(515,235)" d="m0 0h1l2 9-3-1v3h-2v-10z" fill="#EFEFEC"/>
<path transform="translate(614,518)" d="m0 0 3 1-8 6-1-5z" fill="#ECE4CF"/>
<path transform="translate(268,476)" d="m0 0 3 1-2 6-2 2v-6l-4-1z" fill="#EFEFEB"/>
<path transform="translate(973,467)" d="m0 0 6 3 1 8h-3l-1-7-4-3z" fill="#D98D2E"/>
<path transform="translate(283,420)" d="m0 0h10v1h-9l2 5-4-1-2-4z" fill="#EFEFEB"/>
<path transform="translate(842,309)" d="m0 0 5 1 2 3-6-1-4 4-2 4v-5z" fill="#4A5153"/>
<path transform="translate(417,275)" d="m0 0h2l7 11-1 2-4-2-2-6z" fill="#4A5153"/>
<path transform="translate(778,254)" d="m0 0h1v8l4 1-3 4h-3z" fill="#4A5153"/>
<path transform="translate(465,253)" d="m0 0h3v2l-6 3h-2l-1 4-1-1v-5z" fill="#C4BBA3"/>
<path transform="translate(689,243)" d="m0 0 4 1 6 2-1 3-6-1z" fill="#35454F"/>
<path transform="translate(761,681)" d="m0 0 2 2-8 13-1-2 3-7 3-3z" fill="#413F3A"/>
<path transform="translate(611,523)" d="m0 0 9 2-2 2h-7l-2-2z" fill="#DEAD2C"/>
<path transform="translate(718,446)" d="m0 0 1 2-5 8-2 1 1-4 3-5z" fill="#EFCB37"/>
<path transform="translate(865,349)" d="m0 0h5v1l8 1-3 2h-7l-3-2z" fill="#344550"/>
<path transform="translate(366,329)" d="m0 0 2 1 1 5 2 1-3 3v-3l-4-2v-2h2z" fill="#EFEFEB"/>
<path transform="translate(488,254)" d="m0 0h11v2l-2 1h-10l-1-2z" fill="#3F3A33"/>
<path transform="translate(731,729)" d="m0 0 2 1-1 7-2 2-1-6z" fill="#36434A"/>
<path transform="translate(730,621)" d="m0 0 2 1-6 8-3 2 2-6z" fill="#DEA327"/>
<path transform="translate(273,476)" d="m0 0 1 2h2v6h-2l-1 2-1-7z" fill="#394246"/>
<path transform="translate(933,398)" d="m0 0 2 1-9 6-2 3-3-1 4-4z" fill="#D9922D"/>
<path transform="translate(877,355)" d="m0 0h5l-3 5-3 1-1-4z" fill="#F1CD35"/>
<path transform="translate(844,312)" d="m0 0 5 1 3 3 3 1v2l-4-1-5-3-4-1z" fill="#D9962C"/>
<path transform="translate(401,291)" d="m0 0 10 10v2l-4-2-6-8z" fill="#BFBFBE"/>
</svg>
